:SAMPLES-PER-SECOND 30
:FULLY-SPECIFIED
:DEGREES
637
root  -82.9788 40.5014 -0.525495 1.05905 27.4081 3.69766
RightUpLeg  -3.89306 -5.23845 -10.4016
RightLeg  15.0212 12.8592 1.7473
RightFoot  -11.6152 -0.0669522 4.96747
RightToes  -3.31784e-009 0 -3.6325e-017
Spine  14.9331 -0.0100695 11.5355
Spine1  0.272748 2.59019 -7.47902
HEad  -17.9047 13.597 -28.1071
LeftShoulder1  -0.771816 5.46693 -33.1494
LeftArm  6.88129 16.4827 -40.8163
LeftForeArm  29.9206 -49.9472 -11.0577
LeftHand  0.057924 8.28133 4.01121
RightShoulder  -0.8754 -6.09839 27.1446
RightArm  20.7105 -0.743172 40.7142
RightForeArm  6.3953 30.2679 6.25043
RightHand  -0.4178 5.7025 -4.69165
LeftUpLeg  -13.0207 1.10994 0.642739
LeftLeg  4.60068 -5.6622 2.15006
LeftFoot  4.45839 -0.252878 1.60621
LeftToes  1.28511e-009 -3.60458e-011 6.16399e-011
638
root  -83.7405 40.5669 -0.335079 1.66162 33.2926 3.19959
RightUpLeg  -3.39477 -7.92124 -8.69985
RightLeg  14.5007 9.53687 1.13731
RightFoot  -11.4447 -0.0739818 4.08222
RightToes  -3.31784e-009 0 -3.6325e-017
Spine  13.6944 0.434931 10.6233
Spine1  0.378883 2.42101 -5.27663
HEad  -16.3977 10.8966 -26.6154
LeftShoulder1  -0.739877 5.38808 -33.1029
LeftArm  5.87607 16.2556 -40.7006
LeftForeArm  27.7203 -46.2344 -9.71958
LeftHand  0.0180683 6.70675 4.30944
RightShoulder  -0.964558 -6.31199 27.7902
RightArm  23.0135 -0.804563 40.7421
RightForeArm  6.11609 27.4768 5.59212
RightHand  -0.390843 5.73959 -4.40411
LeftUpLeg  -13.8406 3.81247 2.62817
LeftLeg  4.43945 4.30871 1.39456
LeftFoot  2.75853 -0.00218232 -0.103332
LeftToes  1.28511e-009 -3.60458e-011 6.16399e-011
639
root  -84.3829 40.6498 -0.183822 2.50888 40.4582 3.4225
RightUpLeg  -2.38633 -10.7393 -8.08673
RightLeg  13.5419 5.11218 0.926023
RightFoot  -11.178 -0.0802927 3.16803
RightToes  -3.31784e-009 0 -3.6325e-017
Spine  13.5356 0.0910831 9.17663
Spine1  -1.25195 1.37171 -2.87922
HEad  -14.4579 8.41802 -24.8354
LeftShoulder1  -0.821162 5.58533 -33.2859
LeftArm  5.82719 15.4984 -40.2421
LeftForeArm  25.5419 -41.0094 -8.08648
LeftHand  0.0131619 6.83738 3.59269
RightShoulder  -1.00575 -6.38495 28.3636
RightArm  23.6052 -1.70184 41.5231
RightForeArm  6.57225 23.3522 4.71786
RightHand  -0.222537 6.14537 -2.58095
LeftUpLeg  -14.581 5.42787 2.9235
LeftLeg  4.45652 11.9852 0.67168
LeftFoot  2.90913 0.177266 -1.56262
LeftToes  1.28511e-009 -3.60458e-011 6.16399e-011
640
root  -84.9441 40.7708 0.0332654 3.33862 46.9329 4.16589
RightUpLeg  -0.6415 -12.0308 -8.01514
RightLeg  11.7208 0.040303 1.1437
RightFoot  -10.7621 -0.087001 2.74096
RightToes  -3.31784e-009 0 -3.6325e-017
Spine  12.6455 0.292552 8.30036
Spine1  -0.936711 1.26944 -1.78424
HEad  -12.6804 4.48244 -23.2781
LeftShoulder1  -0.803583 5.50427 -33.9999
LeftArm  5.19124 13.3822 -39.5914
LeftForeArm  22.4743 -35.0059 -6.5235
LeftHand  0.0338227 7.21985 4.20627
RightShoulder  -0.992372 -6.3577 28.2259
RightArm  22.126 -3.38036 42.5794
RightForeArm  5.39551 19.6663 4.95001
RightHand  -0.326477 5.45529 -3.80282
LeftUpLeg  -14.6499 7.01228 2.61757
LeftLeg  5.10878 14.2548 -0.0686792
LeftFoot  2.91025 0.0096933 -0.220514
LeftToes  1.28511e-009 -3.60458e-011 6.16399e-011
641
root  -85.3591 40.8266 0.275946 4.53482 52.4623 5.61116
RightUpLeg  0.582995 -12.2656 -7.9976
RightLeg  10.9709 -5.20886 0.839787
RightFoot  -10.7349 -0.0843225 2.17541
RightToes  -3.31784e-009 0 -3.6325e-017
Spine  12.0574 0.353046 8.3488
Spine1  -0.806192 1.53386 -2.95107
HEad  -10.8636 0.762546 -20.9443
LeftShoulder1  -0.77032 5.4207 -33.9231
LeftArm  2.34739 12.6724 -38.8481
LeftForeArm  22.7397 -30.6978 -5.43523
LeftHand  0.0121682 7.15099 2.84919
RightShoulder  -0.962774 -6.22605 28.7673
RightArm  19.6144 -4.52213 43.6323
RightForeArm  7.86132 15.185 6.16172
RightHand  -0.284323 5.51209 -3.33613
LeftUpLeg  -13.9953 8.51214 1.77845
LeftLeg  5.91627 15.7468 -0.326379
LeftFoot  2.271 0.00320975 -0.135735
LeftToes  1.28511e-009 -3.60458e-011 6.16399e-011
642
root  -85.7222 40.8603 0.510312 5.82794 57.7126 6.85559
RightUpLeg  1.23828 -12.1336 -7.3981
RightLeg  10.7546 -10.7353 0.2366
RightFoot  -10.7778 -0.0822884 1.93943
RightToes  -3.31784e-009 0 -3.6325e-017
Spine  12.0183 0.522767 9.3956
Spine1  -1.27927 2.26284 -5.57469
HEad  -9.22936 -3.96779 -18.7481
LeftShoulder1  -0.600846 5.07887 -32.0335
LeftArm  -1.39631 12.7689 -39.1899
LeftForeArm  22.0514 -27.3205 -4.68898
LeftHand  0.0702157 9.3433 3.41921
RightShoulder  -1.09042 -6.45472 30.4278
RightArm  19.8426 -5.21011 43.3468
RightForeArm  10.7085 12.1955 7.4346
RightHand  -0.198453 5.0088 -2.51921
LeftUpLeg  -13.7211 11.0302 0.940222
LeftLeg  7.63377 15.9246 -0.0405449
LeftFoot  1.49498 -0.088747 0.70182
LeftToes  1.28511e-009 -3.60458e-011 6.16399e-011
643
root  -85.9351 40.8828 0.703526 7.81107 62.711 9.21342
RightUpLeg  2.2252 -12.547 -7.65721
RightLeg  10.9046 -15.142 -0.00847314
RightFoot  -11.0962 -0.0806964 2.46319
RightToes  -3.31784e-009 0 -3.6325e-017
Spine  12.4598 1.11386 8.56019
Spine1  -2.0323 2.78219 -5.21934
HEad  -7.68493 -7.80943 -19.008
LeftShoulder1  -0.623601 5.08615 -33.2786
LeftArm  -3.76859 13.381 -36.6622
LeftForeArm  20.5775 -25.8538 -4.45059
LeftHand  0.0399786 8.64562 2.94641
RightShoulder  -1.05584 -6.38442 30.1121
RightArm  20.8983 -6.61022 43.3238
RightForeArm  14.8917 10.8548 8.128
RightHand  -0.147789 4.89038 -1.99683
LeftUpLeg  -12.2677 13.1343 -0.0713515
LeftLeg  8.45129 16.6925 -0.0895235
LeftFoot  0.477055 -0.0916749 0.866308
LeftToes  1.28511e-009 -3.60458e-011 6.16399e-011
644
root  -86.0637 40.8925 0.88795 11.2496 67.9348 12.7095
RightUpLeg  3.03865 -13.0863 -7.98286
RightLeg  10.9348 -19.8981 -0.0595099
RightFoot  -11.2722 -0.0776945 2.08238
RightToes  -3.31784e-009 0 -3.6325e-017
Spine  11.8811 1.7315 7.26744
Spine1  -1.81211 3.20904 -4.52841
HEad  -6.57089 -12.3102 -18.9553
LeftShoulder1  -0.608599 5.01866 -34.0745
LeftArm  -5.16545 13.336 -34.7516
LeftForeArm  17.4586 -23.8993 -4.19638
LeftHand  0.0436022 8.85191 2.85698
RightShoulder  -1.13363 -6.57036 30.4406
RightArm  24.2236 -7.76963 42.6421
RightForeArm  18.1763 11.7949 8.32271
RightHand  -0.169841 2.947 -2.55529
LeftUpLeg  -10.6231 13.4288 -0.903816
LeftLeg  8.73888 19.8914 0.0781984
LeftFoot  -0.534412 -0.152497 1.64236
LeftToes  1.28511e-009 -3.60458e-011 6.16399e-011
